<?xml version="1.0" encoding="UTF-8"?><!-- Generator: Adobe Illustrator 23.0.4, SVG Export Plug-In . SVG Version: 6.00 Build 0)  --><svg xmlns="http://www.w3.org/2000/svg" enable-background="new 0 0 953.8 1198.1" version="1.1" viewBox="0 0 953.8 1198.1" x="0px" xml:space="preserve" y="0px">
<g id="change1_1"><path d="m340.8 571.9c-99.8 11.8-188.4 39-244.4 129.1-36.7 59-59.1 121.8-56 192.4 0.4 9.6 4 24.6-11.3 24.6-14.9 0-11.1-14.8-11.8-24.6-4-57.9 7-112.4 31.3-165.5 44.6-97.8 120.6-153.4 223.9-174.8 18.1-3.8 36.6-6.5 55-7 16-0.5 22.3-7.1 24.3-22.3 6.9-52.4 25.9-100.5 51.1-147 33-61 80.7-104.3 145.4-128.3 14-5.2 17.8-12.4 17-26.7-3.5-64.1 5-127.3 16.3-190.2 0.5-2.9 0.2-6.5 1.9-8.4 5.4-6 11.6-11.3 17.5-16.8 3.8 6.9 11.3 14 10.7 20.5-2.8 33.5-9.3 66.6-11.3 100.1-2.1 34-0.5 68.2-0.5 103.5 25.8-3.5 51.3-8.1 77-10.3 51-4.4 101.6-4 151.5 12 63.7 20.4 98.2 63.4 111.2 127.8 9.7 47.9-0.2 90.9-24.6 131.6-28.4 47.5-87.3 70.7-144.1 53.8-88.7-26.4-146.1-87.3-177.9-172.6-10-27-14.6-55.9-21.8-84-1.1-4.3-2.4-8.6-3.6-12.8-86.9 15-183.9 153.8-187.3 267.2 13.8 3.1 27.9 5.7 41.6 9.6 57.6 16.3 101.7 49.3 135.7 99.6 50.1 74 71.1 155.2 71.9 243 0.4 45.2 2.8 90.7-10.5 134.8-16.4 54.5-47.7 99.4-92.8 133.7-43.3 32.9-81.8 25.6-113.4-18.8-30.2-42.3-43.1-90.8-50.2-141.2-9.4-66.5-22.4-132.9-26-199.8-3.7-68.1 2.1-136.7 3.8-205 0.1-5.2 1-10.4 1.2-15.6 0.1-3-0.4-5.7-0.8-11.6zm18.1 173.7l6.6 0.3c0 21.5-2.2 43.2 0.4 64.3 7.9 64.3 17.3 128.5 26.6 192.6 6.5 45.1 18.1 88.6 45.2 126.4 21 29.3 40.1 33.6 68.7 12 42.9-32.4 75.1-74.4 85-127.5 7.6-41.1 7.1-84 7.8-126.1 1.3-79.9-21.8-152.3-65.9-219.5-35.4-54-84.7-82.1-146.1-93.8-9.8-1.9-14.5 0.7-15.3 10.4-4.3 53.6-8.7 107.2-13 160.9zm554.7-347c-2.6-75.7-31.2-116.8-96.1-138.6-68.7-23.1-137.3-12.6-205.9 0.4-10.2 1.9-11.2 8.8-9.5 16.9 3.8 18.1 7.5 36.3 12.1 54.2 21.1 81 67.1 142.7 144.9 175.9 88.3 37.7 148.2-24.6 154.5-108.8z" fill="inherit"/></g>
</svg>