<svg xmlns="http://www.w3.org/2000/svg" enable-background="new 0 0 458.7 70.5" version="1.1" viewBox="0 0 458.7 70.5" x="0px" xml:space="preserve" y="0px" style="fill: rgb(0, 0, 0);" role="img" aria-label="Brown Two Line Brush Swatches">
<g id="__id4_sx9dslnw77"><path d="m322.9 34.4c1.1 2.4 2.9 1.6 4.2 1.3 4-0.6 8.1-0.7 12.2-0.2 0.9 0.1 1.9-0.5 2.8-0.5 1.4 0 2.8 0.2 4.1 0.2 1.9 0 3.7 0 5.6-0.2 3.7-0.4 7.4-0.4 11 0.2 2.5 0.4 5.1 0 7.7 0 1.7 0 3.5 0.1 5.2 0.1 6.7 0 13.5-0.1 20.2-0.1 2.8 0 5.6 0.5 8.4 0.5 5.2 0 10.4-0.2 15.7-0.3 4.2 0 8.4 0.2 12.6 0.3 1.3 0 2.6-0.1 3.9 0 2.5 0.2 5 0.4 7.4 0.6 0.2 0 0.6 0 0.7-0.1 1.1-1.2 2.3-1 3.6-0.5 0.4 0.1 1-0.7 1.5-1l-0.7-1.4 0.6-0.4 3.5 4.3c1 0 2.4 0.3 1.1 2.7-0.3 0.6 0.6 1.9 0.9 2.5-0.4 0.9-1.1 1.8-0.9 2.2 0.3 0.6 1.3 0.9 2.2 1.5v1l-3.2 0.3c0.3 1.1 0.7 2.1 1.1 3.3-1.6-0.4-2.5 0.3-2.4 2.4h2.8c0.3 0.5 0.6 1 0.8 1.5 0.5 1.4 0.2 2.6-1.2 3.3-0.9 0.4-2 0.3-1.9 1.9-0.7 0.4-1.6 0.6-2.4 0.5-1.7-0.8-2.8 0.2-3.9 0.9-1 0.7-2.2 0.8-3.3 0.3-1-0.2-2-0.3-3-0.1-0.7 0-1.5 0.1-2.2 0.1h-10.1c-4.1 0-8.1-0.1-12.2-0.2h-7.2c-4.9 0-9.9-0.1-14.8 0-3.1 0-6.2 0.5-9.3 0.4-3.2 0-6.5-0.5-9.7-0.6-3.8-0.1-7.6 0.1-11.4 0.1s-7.4 0-11.1 0-7.5 0.1-11.2 0.2c-2.2 0-4.4-0.2-6.6-0.1-2.4 0.1-4.8 0.8-7.1 0.4-2.1-0.3-3.9 0.6-6.1 0s-4.7 0.3-7.1 0.4c-3.5 0.2-7 0.2-10.6 0.3-4.9 0.1-9.8 0.3-14.8 0.4-3.8 0-7.5 0-11.3-0.1-3.2 0-6.4-0.2-9.6-0.1-2.1 0.1-4.2 0.7-6.3 0.8-6 0.3-11.9 0.3-17.9 0.5-4.9 0.2-9.8 0.4-14.6 0.7-2.8 0.1-5.6 0.7-8.4 0.5-5.6-0.4-11.3 0.3-16.9 0-3.2-0.2-6.5 0.3-9.8 0.3-5.4 0-10.9-0.2-16.3-0.3-3.9-0.1-7.9-0.5-11.8 0-2.1 0.3-4-0.1-6.1 0.2-3.1 0.4-6.3-0.2-9.5-0.2-1.2 0-2.4 0.3-3.6 0.3-2.2-0.1-4.4-0.4-6.7-0.4-3.1 0-6.1 0.2-9.2 0.3-2.6 0.1-5.1 0.1-7.7 0.1-1 0-2.1 0.1-3.1 0-1.6 0-3.3-0.2-4.9-0.2-5.3 0.2-10.5 0.4-15.8 0.6-3.2 0.1-6.4-0.2-9.7-0.2-5.4 0.1-10.9 0.3-16.3 0.5-3.7 0.1-7.4 0.4-11.1 0.6-3.2 0.1-6.3 0.1-9.5 0.3-2.4 0.1-4.8 0.3-7.1 0.4-1.6 0.1-3.2-0.1-4.9 0-2 0.2-4 0.5-6.1 0.7-2.3 0.3-4.6 0.5-6.9 0.8-2.9 0.3-5.8 0.5-8.7 0.8-2.4 0.2-4.8 0.5-7.2 0.6-0.5 0-1.1-0.5-1.6-0.5-1.8-0.1-3.6 0-5.4-0.2-1.1-0.1-2.8-0.4-3.2-1.1-0.6-1.1-1.9-2.7 0-4.2 0.5-0.4 0.3-1.9 0.4-3.2 1.9-1.3 2-1.8 0.3-4.3-1.2-1.7-1.2-2.4-0.5-3.2-0.3-0.9-0.9-2-1.3-3.1-0.1-0.2 0.8-0.7 1.4-1.2-0.2-1.1-0.1-2.1 0.1-3.2 0.3-1.4 1.7-2.3 3.1-2.1 1 0 2-0.1 3-0.4 1.7 0.2 3.4 0.4 5.1 0.4 2.5-0.2 5.1-0.7 7.6-0.9 5-0.4 10.1-0.8 15.2-1.1 5.5-0.3 10.9-0.4 16.4-0.7 5.7-0.3 11.4-0.7 17.1-0.9s11.6-0.2 17.4-0.4c3.8-0.1 7.6-0.4 11.3-0.6 0.6 0 1.3 0.1 1.9 0.1 3.5 0 7-0.2 10.5-0.1 4 0.1 8 0.4 12 0.6 0.4 0 0.7-0.1 1.1-0.3 0.8-0.2 1.6-0.4 2.4-0.4 4.8-0.1 9.6-0.2 14.3-0.2 2.8 0 5.6 0.3 8.4 0.4 1.2 0.1 2.5 0.1 3.7 0 2.4-0.1 4.9-0.4 7.4-0.5 1.5-0.1 3 0.3 4.5 0.3 2.1 0 4.1-0.4 6.2-0.3 5.6 0.1 11.3 0.4 17 0.5 1.2 0 2.5-0.4 3.7-0.5 1.8 0 3.6 0.2 5.3 0.2 2.9-0.1 5.8-0.4 8.7-0.5 1.5-0.2 2.9-0.1 4.3 0.3 1 0.5 2.2 0.6 3.3 0.3 0.8-0.1 1.6-0.1 2.4-0.1 6.9-0.2 13.7-0.5 20.6-0.7 2.7-0.1 5.4 0.2 8.1 0 3-0.1 6-0.5 9-0.8 2.4-0.2 4.8-0.3 7.2-0.4 3.2-0.1 6.4-0.2 9.6-0.2 5.3-0.1 10.7-0.2 16.1-0.2 4.4-0.1 8.8-0.1 13.2-0.1 1.9 0 3.8-0.1 5.8-0.2 4.4-0.2 8.8-0.5 13.1-0.8 0.6-0.1 1.3 0 1.9 0.2 1.4 0.7 2.7 0.5 3.5-1.6zm111.2-28.9c1.6-2.5 4.1-0.4 6.2-0.5 1.2-0.1 2.8-0.1 3.5 1.6 0.1 0.2 1.2 0 1.8-0.1v7.8c-1.3 0-3.2-1.4-4.3 0.7-0.2 0.3 0 0.9 0 1.3l2.6-0.8c0.9 2.3 1.7 4.2 2.4 6.2h-0.3l2 4.5-3.4 1.4c-0.3 0.7 1.8 2.4-1.1 1.9s-6 0.5-9 0.6c-2.7 0.1-5.5-0.2-8.2-0.2-0.8 0-1.6 0.1-2.4 0-1.7-0.1-3.4-0.2-5-0.2-1.1 0-2.2 0.2-3.2 0.2-0.5 0-1 0-1.5-0.1s-1-0.3-1.5-0.3c-4.3-0.1-8.5 0-12.8-0.2-4.7-0.2-9.5-0.5-14.2-0.7-4.2-0.2-8.5-0.3-12.7-0.4-5.8-0.1-11.6-0.1-17.4-0.2s-11.9-0.8-17.8-0.4c-5.2 0.3-10.4 0.1-15.6 0s-10.5-0.4-15.8-0.7h-0.4c-3.8 1-7.6 0.3-11.4 0.3-5.3 0-10.6 0.3-15.9 0.2-5.6 0-11.1-0.4-16.7-0.4-3.2 0-6.5 0.2-9.7 0.2-1.8 0-3.6-0.4-5.4-0.5-2.7-0.1-5.4 0-8.1 0.1-0.5 0-0.9 0.3-1.4 0.2-3.8-0.7-7.5-0.2-11.3-0.1-4.2 0.2-8.4-0.3-12.5-0.2-3.6 0.1-7.3 0.6-10.9 0.8-2.3 0.1-4.6-0.2-6.9-0.2-4.3 0.1-8.6 0.5-12.9 0.6-2.8 0.1-5.6 0.1-8.5 0.2l-10.8 0.3c-2.5 0.1-5 0.3-7.4 0.5-4.2 0.2-8.4 0.3-12.5 0.4h-5.6s-3.9-0.6-5.6 0c-2.8 1-5.4 0-8.1 0.2-6.4 0.4-12.9 0.3-19.4 0.5-4.8 0.1-9.6 0-14.3 0.1-1.9 0-3.8 0.5-5.7 0.7s-3.6 0.2-5.3 0.2c-2.9 0.1-5.8 0.1-8.7 0.2-3.7 0.1-7.3 0.1-10.9 0.3-4.1 0.2-8.2 0.5-12.3 0.8-4.3 0.3-8.6 0.9-12.9 1.1-2.7 0.1-5.5-0.2-8.2-0.4h-0.2c-1.2 0.4-2.8 1.1-3.1-0.8-0.2-1.1 0.3-2.3 0.6-3.5 0.2-0.9 0.5-1.7 0.8-2.7h1c-0.4-1.5-0.7-3-1.2-4.4-0.1-0.4-0.4-0.7-0.8-0.9-1.1-0.4-1.7-0.8-0.4-1.8 0.4-0.4 0.8-0.9 1.2-1.4l-2.4-3.5 0.7 0.3 2.6-2.5-0.7-0.5-2.4-2.2c1.3-0.3 2.5-0.7 3.7-0.9 2.8-0.4 5.6-0.7 8.5-1 2.7-0.3 5.4-0.4 8.1-0.6 4.9-0.4 9.7-0.9 14.6-1.2 4.7-0.3 9.3-0.3 14-0.6 3.4-0.2 6.8-0.6 10.3-0.8 2.4-0.1 4.8 0 7.2-0.1 6.2-0.2 12.4-0.6 18.6-0.6 5.4 0 10.9 0.4 16.3 0.4 4.6 0 9.2-0.4 13.8-0.6 1.2 0 2.4 0.2 3.7 0.1 4.5-0.2 9.1-0.5 13.6-0.6s9.3-0.2 14-0.3c2.5-0.1 4.9-0.5 7.4-0.6 3.3-0.2 6.6-0.2 9.9-0.5s6.3-0.7 9.5-0.9c1 0 2.1 0.7 3.1 0.7 1.9 0.1 3.7 0.1 5.6 0 6.2-0.6 12.3-0.7 18.5-0.3 1.6 0.1 3.2-0.4 4.8-0.5 1.4-0.1 2.7 0 4.1 0.1 1.6 0.2 3 0.9 4.6-0.2 0.5-0.4 1.8 0.3 2.7 0.3 2.9 0 5.8-0.1 8.7 0 1.4 0 2.8 0.6 4.2 0.6 3.3 0 6.6-0.3 9.9-0.4 1.7 0 3.4 0.1 5.2 0.1s3.6-0.1 5.4-0.1c2.1 0 4.2 0.4 6.3 0.3 2.5 0 4.9-0.4 7.3-0.5 1.5 0 3 0.2 4.5 0.2 2.8 0.1 5.5 0.3 8.3 0.3 3.9 0 7.9-0.2 11.8-0.2 1.4 0 2.8 0.1 4.2 0.1 3.1-0.1 6.3-0.1 9.4 0.1 6.3 0.8 12.6 0.4 19 0.1 1.7 0.1 3.3 0.3 5 0.5 2.1 0.1 4.2 0.2 6.4 0.2h8.1c0.3 0.1 0.7 0.1 1 0.1 7.3-1 14.5 0.5 21.8 0.1 2.8-0.2 5.6 0 8.4 0.1 4.1 0.6 8.1 0.8 12 1 4.9 0.2 9.9 0.4 14.8 0.6 3.6 0.2 7.2 0.4 10.7 0.7 1 0.3 1.8 0.7 2.7 1.2zm23.5 45c1.2 1.4 1.5 3.5 0.7 4.2-1.2-1.2-2.6-2.3-0.7-4.2z" style="fill: rgb(0, 0, 0);"></path></g>
</svg>