<?xml version="1.0" encoding="UTF-8"?><!-- Generator: Adobe Illustrator 23.0.4, SVG Export Plug-In . SVG Version: 6.00 Build 0)  --><svg xmlns="http://www.w3.org/2000/svg" enable-background="new 0 0 618.8 60.1" version="1.1" viewBox="0 0 618.8 60.1" x="0px" xml:space="preserve" y="0px">
<g id="change1_1"><path d="m384.4 0c57.9 0 107 0.1 156 0 24.3 0 48.3 3.3 72 8.2 2.3 0.5 4.2 2.3 6.3 3.5-1.8 1.7-3.2 4-5.3 5-19.9 9.1-41.5 14-63.4 14.4-38.2 0.7-76.4 0.5-114.5 1.2-70 1.3-140 2-210 4.8-32.4 1.3-64.6 6.7-96.9 10.6-30.1 3.7-60 8.2-90.1 11.7-8.6 1-17.3 0.8-25.8-0.5-8.4-1.2-12.9-7.2-12.7-13.5s4.5-10.5 13.4-12.1c39.1-6.8 77.8-15.7 117.5-18.9 27.1-2.2 54.1-7 81.2-9.5 19.9-1.9 40-2.3 60.1-2.8 40.3-0.9 80.7-1.5 112.2-2.1z" fill="inherit"/></g>
</svg>