<svg xmlns="http://www.w3.org/2000/svg" enable-background="new 0 0 198.9 109.6" version="1.1" viewBox="0 0 198.9 109.6" x="0px" xml:space="preserve" y="0px" style="fill: rgb(0, 0, 0);" role="img" aria-label="Cream Line Brush Swatches">
<g id="__id71_swx2i2c7sh"><path d="m161 103.8c-0.4-0.7-0.8-1.4-1.1-2.1-0.4-0.9-0.9-0.9-1.2-0.1-0.6 1.3-1.3 1.8-2.7 1-0.9-0.5-2.1 0.5-3.1-0.4-0.2-0.2-1.5 0.3-1.6 0.7-0.7 1.9-1.9 2.2-3.6 1.4-0.8-0.6-2-0.4-2.6 0.5-0.1 0.1-0.1 0.2-0.2 0.4-0.3 0.4-1 0.6-1.6 0.8-0.3-0.6-0.6-1.2-0.8-1.9-0.1-0.7-0.1-1.4-0.1-2.1 0-0.6-0.1-1.1-0.2-1.9-2.4-0.7-2.7-2.8-2.6-5.1 0.1-4.7 0.3-9.3 0.2-14-0.1-5.7-0.6-11.4-0.8-17.1-0.1-3.4 0-6.8-0.2-10.1-0.1-2.4-0.6-4.7-0.7-7.1-0.1-1.2 0.3-2.4 0.2-3.6-0.7-4.4 0-9-0.5-13.4-0.4-3.5-0.9-7-1.2-10.5-0.2-2.9-0.2-5.8-0.3-8.8 0-1.1 1.4-2.2-0.2-3.3 2-1.4 1.6-3.2 1.1-5.1-0.2-0.6 0.2-1.4 0.4-2.1l1.2 1.3 2.3-0.6c-0.3 1.2 0 2.4-1.4 2.6-0.1 0-0.2 0.8-0.3 1.1l3.3 0.2-0.7-1.4 2.8-2.6-0.9 2.2 3.6-1.3 1.8 2.6 0.2-2.2c2.1-0.4 1.7 1.5 2.4 2.4 0.3 0.5 0.5 1 0.7 1.5 0.2-0.1 0.6-0.2 0.6-0.3-0.1-0.7-0.2-1.4-0.4-2.1-0.1-0.2-0.1-0.4-0.2-0.7l1.8 0.2 0.3-2.8 0.5-0.1c0.4 1.6 1.1 2.9 2.9 2.3 0.5-0.2 0.7-1.4 1-2.1 1.2 0.7 1.5 3.6 0.5 4.9 0.4 2 0.8 3.9 1.1 5.8 0.3 2.5 0.5 5 0.7 7.6s0.1 5.1 0.2 7.6c0.1 0.9 0.2 1.8 0.4 2.7 0.5 2.2 0.5 4.4 0.1 6.6-0.3 2.6-0.3 5.2 0.1 7.7 0.3 3.5 0.8 6.9 1.1 10.4 0.1 0.8 0 1.7 0 2.5 0.1 4 0.2 8 0.2 12 0 2.4-0.2 4.8-0.1 7.1 0 1.5 0.5 3 0.5 4.4-0.1 4.2-0.3 8.3-0.5 12.5-0.1 1.9-0.3 3.9-0.2 5.8-0.1 2.4-0.8 4.5-2.2 6.1zm-61.2-100.7c1.5-1.5 3.5-1.5 4.1-0.2 1.1 0.4 2.3 0.8 3.4 1 1.5 0.2 3 0.3 4.5 0.1 0.7-0.2 1.4 0.2 1.6 0.9v0.1c0.4 1 1.2 2 1.6 3 0.1 0.8 0.1 1.6-0.1 2.4l2.3-6.3c1.2 0.4 2.1 0.8 3 1.1 0.2 0 0.5 0 0.6-0.1 0.5-0.4 1.3-0.4 1.7 0.1 0.2 0.2 0.3 0.5 0.3 0.8 0.3 4.3 0.6 8.6 0.9 12.9 0.4 4.5 1 9 1.3 13.5 0.2 1.8 0 3.6 0.1 5.4 0.1 1.5 0.4 2.9 0.5 4.4 0.3 2.6 0.6 5.2 0.8 7.8 0.3 3.2-0.2 6.3 0.4 9.5 0.6 3.5 0.1 7.2 0.1 10.9 0 1.7 0.1 3.4 0.1 5.1 0.1 4.3 0.1 8.7 0.2 13 0.1 2.4 0.3 4.7 0.4 7.1v0.2c0 0.3-3.1 4.3-3.4 4.2-0.5-0.1-1-0.3-1.5-0.6-0.5-0.5-0.9-1.1-1.2-1.7-0.4 1.8-0.6 3-0.9 4.2-0.1 0.3-0.6 0.6-0.9 0.8 0-0.3 0.1-0.8-0.1-1-0.6-0.8-1.4-1.4-2.2-2.3-0.8 3.5-0.8 3.5-3.3 3.4l1.4-1.1c-0.6-2.5-2.1-0.4-3.3-0.5l0.3 0.4c-0.3 0.9-0.5 1.4-0.7 2-0.1 0.3-0.3 0.5-0.5 0.7-0.2-0.2-0.3-0.4-0.4-0.7-0.2-0.3-0.4-0.7-0.6-1.1-0.2 0.4-0.7 0.9-0.6 1.2 0.2 1.2-0.3 1.3-1.1 1.3 0.1-0.8 0.2-1.3 0.2-1.9s0-1.2 0-2.1l-1.5 0.1-1.4-3.3c-1.3 0.6-1.7 0-1.7-1.5-0.2-3.7-0.6-7.4-0.9-11-0.2-2.7-0.7-5.4-0.8-8.2-0.2-4.8-0.3-9.6-0.4-14.3-0.1-3.3 0-6.7-0.1-10-0.2-5-0.7-10-1-15.1-0.3-4.8-0.5-9.7-0.9-14.5-0.2-2.7-1-5.4-1.1-8.1-0.1-2.6 0.2-5.2 1-7.7 0.6-1.1 0-2.6-0.2-4.3zm2.8 3l3.2-0.3-2.5-3-0.7 3.3zm18.4 91.5l0.3 0.3c0.3-0.4 0.5-0.8 0.7-1.3 0.1-0.5 0.2-1.1 0.1-1.6-0.1-0.4-0.3-0.7-0.5-1-0.2 0.3-0.6 0.7-0.6 1-0.1 0.9-0.1 1.8 0 2.6zm-87.6-85.4c0.7 1.4 2.3 2.1 3.8 1.7 1.5-0.5 3-1 4.4-1.4l-0.8-1.4 1.5-0.7 0.4 2.4 1.2-0.6 1.5 4.6c1.5-0.2 1-1.8 0.7-2.6-0.7-1.7 0.7-2.8 1-4.1 0-0.2 0.8-0.3 1.3-0.4l-0.1 2.1c1.3 1 2.6 0.4 3.4-2.2 0.5 1.7 0.9 3 1.2 4.4 0.7 2.9 1.4 5.9 2 8.8 0.5 2.6 0.8 5.2 1.1 7.8 0.2 1.7-0.1 3.4-0.1 5.1s0.3 3.3 0.3 5 0 3.5 0 5.3c0 0.2-0.1 0.4 0 0.5 1.4 2.7 0.4 5.7 0.8 8.5 0.4 3.3 0.5 6.6 0.6 9.9 0.1 1.2-0.1 2.4 0 3.6 0.1 2.9 0.3 5.8 0.4 8.8 0.1 3.3 0.1 6.6 0.1 9.9 0.1 4 0.2 7.9 0.1 11.9 0 1.5-0.4 2.9-2 3.5-0.2 0-0.3 0.1-0.5 0.2-0.5 0.3-1 0.6-1.5 1-0.4-0.6-0.8-1.3-1.1-2-0.3-1-0.4-2.1-0.7-3.1-0.3-0.5-0.8-1-1.4-1.2 1.6 2.4 0.1 4.7 0 7 0 0.2-0.6 0.3-1.1 0.6 0-0.5 0.1-0.8 0-1.1-0.2-0.5-0.6-1-1-1.4-0.1-0.1-0.7 0.3-1 0.6s-0.7 0.8-1.3 1.4c-1.2-2-2.6-0.7-4-0.1v-2.2c-0.6 0.6-1.2 1.2-1.7 1.9-0.2 0.4-0.1 0.9-0.1 1.4s-0.1 1-0.2 1.5c-0.3 0.2-0.6 0.2-0.8 0.1-0.4-0.4-0.7-0.8-0.9-1.3-0.3-0.6-0.6-1.2-0.8-1.8l-1.3 0.6c-0.1-0.5-0.2-1-0.3-1.4-0.4-1.6-0.8-3.1-1-4.7-0.5-2.8-0.9-5.6-1.2-8.4-0.4-5-0.8-10-1-15-0.1-3.4 0-6.8 0-10.2-0.1-2.7-0.4-5.4-0.5-8s0-5.4-0.1-8.2c-0.1-2.5-0.5-5-0.6-7.5-0.2-3.3-0.1-6.7-0.2-10.1-0.1-1.4-0.5-2.8-0.7-4.2-0.3-3.1-0.6-6.1-0.8-9.2-0.1-1.3 0-2.7 0.4-4 0.4-0.5 1.7-1 2.6-1.6zm55 88.1l-0.8 0.6-2.9-5.9h-0.4c0.4 1.8 0.8 3.6 1.2 5.5l-3.4 1-0.1-0.5-2 2.3-3.8-4.3c0.2 1.8-0.9 2.3-2.4 2.8l-0.7-3.6-0.5-0.3-1.5 1.6-0.8-1.8 1.5-0.7-1.6-1c-0.3-3.1-0.8-6.5-1-10-0.1-2.8 0.2-5.6 0.2-8.5 0-2.2-0.2-4.5-0.3-6.7-0.1-1.6-0.2-3.3-0.2-4.9-0.1-3.9 0-7.9-0.1-11.8 0-2.8 0-5.6-0.1-8.4-0.2-3.2-0.5-6.4-0.7-9.6-0.2-4.3-0.2-8.6-0.2-12.9 0-0.7 0.8-1.3 1.1-2 0.3-0.6 0.4-1.2 0.3-1.9-0.3-1.4-0.7-2.7 0.5-4.2 0.2 0.5 0.4 1 0.7 1.5s0.8 0.8 1.2 1.2c0.3 0.2 1 0.2 1 0.4-0.1 0.6-0.2 1.1-0.4 1.6l1.7 0.5 0.5-2.4 1.9-1.5 1 2.1c0.9-0.5 2-1.2 2.4 0.3l2.8-1.4c0 1.6 1.2 3.5 2 3.6l0.2-2.9 6.6-0.4v3.8c0 1.2-0.1 2.3 0 3.5 0.2 2.7 0.7 5.3 0.8 8 0.2 3.7 0.3 7.3 0.4 11 0.1 4.2 0.2 8.3 0.3 12.5 0 2.6-0.2 5.2-0.3 7.8 0 0.8 0.2 1.6 0.3 2.3 0.2 3.6 0.4 7.2 0.5 10.9 0.1 2.9 0 5.8 0 8.7 0 1.8-0.2 3.6-0.2 5.5 0 2 0 4.1-0.1 6.1 0 0.5-0.6 1-0.9 1.5-0.2 0.4-0.4 0.7-0.7 1-0.4 0.5-0.8 1.3-1.3 1.4s-0.8-0.9-1.7-1.4zm106.9-6.2l-0.1-1.4-2.3 0.6-0.2-2.8h-0.6l-0.3 1.2c-0.5 0-1 0.1-1.4 0.2-0.3 0.1-0.7 0.3-0.7 0.4-0.2 1.6-1.3 2.1-2.7 2.4-0.2 0.1-0.3 0.6-0.5 0.9l-3.1-1.4c0.4 2.1-1.6 1.7-2.4 2.4-1.1 0.9-1.8 0-2.4-0.8l1.5 0.6v-2.9l1.4 1.3 1.8-2-1.9-1.7-3.7 3.4c0.2-1.5 0.4-3.1 0.7-4.9l-2.5 0.2c-0.2-2-0.3-4-0.5-6s-0.6-4-0.7-6c-0.1-1.8-0.1-3.5-0.1-5.2-0.1-3.6-0.4-7.2-0.5-10.7 0-1.5 0.1-3.1 0.1-4.6 0-1.1-0.2-2.2-0.3-3.4-0.2-2.9-0.4-5.7-0.6-8.6s-0.5-5.6-0.6-8.4c-0.2-3.8-0.2-7.7-0.2-11.5 0-2.4 0.2-4.8 0.3-7.1 0-0.3 0.1-0.7 0.2-1 0.4-0.9 0.6-1.9 0.3-2.9-0.1-1.1 0-2.3 0.2-3.4 0.8 0.3 1.5 0.6 2.3 0.9 0.4 0.1 1.1 0 1.2-0.2 0.6-1.5 1.9-0.3 2.8-0.8 0.2 0.4 0.5 0.9 0.6 1.4 0.1 0.3-0.1 0.7 0.2 1.2l0.7-1c1.2 1 2.3 1.7 3.3-0.1 0.6 0.1 1.1 0.3 1.6 0.7 1.2 1.4 2 1.4 3.2-0.1 0.1-0.1 0.4-0.1 0.6-0.1 1.2-0.3 1.2-1 0.4-1.7 0.7 0.1 1.4 0.1 2.1-0.1 0.4-0.2 0.5-1 0.8-1.7l-1.9 0.5-0.3-0.4c0.4-0.5 1.1-1.4 1.2-1.3 1 0.5 2.9-0.5 3 1.5 0.1 3.9 1 7.7 1.1 11.7 0.1 3.1-0.3 6.2-0.1 9.3s0.6 6.3 0.7 9.5c0.1 2.9 0 5.8 0.1 8.8 0.1 1.8 0.3 3.5 0.5 5.3 0.4 5 0.9 10.1 1.1 15.1s0.2 10 0.2 15c-0.1 1.9-0.3 3.7-0.6 5.6-0.2 0.5-0.4 1-0.8 1.4-0.7 0.6-1.4 1.7-2.2 2.7zm-14.5-75.4c1.2-0.3 1.9-1.6 1.6-2.7 0-0.6-0.9-1.2-1.3-1.7l-0.6 0.3c0.1 1.2 0.2 2.5 0.3 4.1zm-178.1 8.4c1.5 0.2 3 0.4 4.4 0.7 0.6 0.2 1.2 0.6 1.7 1 0.6 0.5 1.1 1 1.9 1.7 1.7 0 0-3.8 2.3-3.1 0.5 0.8 0.9 1.5 1.3 2s0.6 0.3 1.2 0.2c2.2-0.5 2.3-2.5 3.5-3.7l4.7 1.2-1.5 1.7c1 0.8 2 1.6 1.4 3.3-0.2 1-0.1 2 0.1 3l0.6 7.8c0.2 3.8 0.5 7.5 0.7 11.3 0.1 2.9 0.1 5.9 0.2 8.9s0.4 5.7 0.6 8.6c0.3 6.8 0.7 13.6 0.9 20.4 0.1 3.4 0 6.8-0.2 10.2-0.2 1.2-0.6 2.4-1.1 3.6-0.7-0.5-1.4-1.3-2-1.3s-2 0.3-1.5 1.5c-2.5 1.1-2.1-2.1-3.6-2.5l-1.1 2.1 0.7 1.5-3.5 0.3-0.2-1.9-2.2-1.6c0 0.4-0.2 0.9-0.1 1.2 0.8 1 0.6 2.4-0.3 3.3-0.6 0.7-1.4 1.1-2.2 1.3-1.3-0.2-2.5-0.5-3.7-1l1.8-1.1-1.9-0.8v0.7c-1.7-0.2-1.9-0.7-1.1-2 0.3-0.6 0.2-1.3-0.1-1.9-1.1-1.6-1.6-3.5-1.3-5.5 0-2.3-0.2-4.7-0.5-7-0.2-2.7-0.5-5.2-0.6-7.8-0.3-4.4-0.4-8.9-0.5-13.3-0.1-2.8-0.1-5.5-0.2-8.3 0-0.5-0.2-1-0.2-1.5-0.2-3.2-0.5-6.4-0.6-9.6-0.2-4-0.4-8-0.4-12 0-2.1 0.3-4.2 0.4-6.2v-0.3c-0.8-2.2 0.1-3.6 2.2-4.4v-0.7zm0.1 0c-0.8-0.8-0.8-2 0-2.8l0.1-0.1c0.4-0.4 1.5-0.1 2.7-0.1l-2.8 3zm192.5 67l1 0.8c-0.2 0.2-0.5 0.5-0.8 0.6-1.1 0.3-1.9 0-2.1-1.3l1.9-0.1z" style="fill: rgb(0, 0, 0);"></path></g>
</svg>