<svg xmlns="http://www.w3.org/2000/svg" enable-background="new 0 0 167.4 161" version="1.1" viewBox="0 0 167.4 161" x="0px" xml:space="preserve" y="0px" style="fill: rgb(255, 255, 255);" role="img" aria-label="Curves Quote Decoration">
<g id="__id36_s96td5vnle"><path d="m31.3 138.9c1.3-21.7 6.2-42 21.3-58.9 14.2-15.9 32.8-23.9 52.8-27.9 12.8-2.6 26.3-2.2 39.5-2.1 9.1 0.1 16.1 5.1 21.2 12.7 3 4.5 2 7.6-2.6 9.1-5.4 1.8-10.9 3-16.5 3.6-13.6 1.5-27.4 2.1-41 3.7-18.3 2.3-30 14.2-37.7 29.6-6.1 12.2-10.4 25.3-15.2 38.1-2.2 6-3.4 12.8-11.7 12-8.5-0.8-9.1-8.1-10.1-14.5-0.1-1.8-0.2-3.6 0-5.4zm55.7-134.2c-12.6 1.4-25.1 3.6-37.5 6.5-13.9 3.5-22.5 15-30.7 25.4-6.8 8.6-11 19.5-14.8 29.8-1.2 3.2 1.2 9.7 4 11.9 4 3 8.1-0.5 10.7-4.7 3.3-5.5 7.2-10.7 10.2-16.4 9-17.1 21.4-29.2 41.7-31.2 7-0.7 13.9-1.9 20.8-3.5 5.1-1.2 9.9-3.5 15.6-5.6-5.7-7.8-11.5-13.2-20-12.2z" style="fill: inherit;"></path></g>
</svg>