<svg xmlns="http://www.w3.org/2000/svg" enable-background="new 0 0 848.7 334.3" version="1.1" viewBox="0 0 848.7 334.3" x="0px" xml:space="preserve" y="0px" style="fill: rgb(255, 255, 255);" role="img" aria-label="Handdrawn Round Shape Outline Quote Decoration">
<g id="__id35_scglpushtr"><path d="m352.1 3.3c72.9 2.7 145.4 8.4 217.3 20 57.3 9.3 112.9 25.3 165 51.6 10 5.1 20.2 9.7 30.4 14.6 14.5 6.9 26.4 17.1 36.2 29.8 1.9 2.3 4.2 4.2 6.7 5.8 23 15.7 37.7 36.5 39.1 65.1 2.3 45.4-21.7 75.6-58.5 96.8-29.3 16.9-62.2 24.6-95.6 28.5-48.5 5.5-97 10.5-145.6 14.8-48.7 4.3-97.5 2.7-146.2-1.9-51.6-4.8-103.2-9.7-154.7-15.1-51.8-5.6-102.6-18.4-150.8-38.1-27.9-11.3-52.4-27.3-71.5-50.9-10.3-12.8-19.3-26.5-20.4-43.3-0.6-9.7 0-20.1 2.8-29.3 7.1-24.2 21.2-45.8 40.6-62 27.6-23.3 58.8-40 92.7-51.9 40.4-14.2 81.1-27.8 123.9-31.7 29.4-2.7 59.1-2 88.6-2.8zm134.4 299.2c20.5-0.9 41-1.1 61.4-2.9 41-3.7 82-8.3 123-12.4 29.5-3 58.6-8.1 86.4-19 16.1-6.3 30.9-14.4 42.3-27.8 19.9-23.4 23.4-47.7 8.9-72.1-4.4-7.4-11.9-13-17.6-19.7-13-15.6-27.9-28.8-47.2-36.3-8-3.1-15.8-7-23.5-10.9-47.7-24.3-98.6-39.7-151.2-48.4-93.3-15.5-187.4-20.7-282-19.8-8.9 0.1-17.7 0.9-26.4 2.2-43.5 6.6-85.4 19.4-126.6 34.6-23.9 9-46.2 21.7-66.1 37.8-14.2 11.3-24.3 25.2-31.9 41.6-9.2 20-6.4 37.4 7.3 54.2 14.1 17.3 32.2 31 52.7 39.9 42.8 18.8 88 31.4 134.4 37.3 36.6 4.7 73.4 7.6 110.2 11.2 48.4 4.9 97 10 145.9 10.5z" style="fill: inherit;"></path></g>
</svg>