<?xml version="1.0" encoding="UTF-8"?><!-- Generator: Adobe Illustrator 23.0.4, SVG Export Plug-In . SVG Version: 6.00 Build 0)  --><svg xmlns="http://www.w3.org/2000/svg" enable-background="new 0 0 265.4 294.9" version="1.1" viewBox="0 0 265.4 294.9" x="0px" xml:space="preserve" y="0px">
<g id="change1_1"><path d="m265.4 250.5c-9.2 10.7-21.2 15.6-34.9 18.4-32.8 6.8-65.4 14.8-98.2 21.7-10.9 2.2-21.9 3.6-32.9 4.2-10.1 0.6-17-4.6-18.6-12.2-1.6-7.9 3-16.1 13.2-18.7 16.8-4.3 34-7 51-10.6 25.8-5.4 51.4-11.5 77.2-16.2 15-2.8 29.9-0.7 43.1 8l0.1 5.4zm-209-250.5c-11.1 6.7-20 15.6-24.1 27.9-10.6 31.8-20.7 63.8-30.4 96-1.9 6.3-2.4 13-1.5 19.5 0.6 4.3 4.3 10.3 7.8 11.3 4.1 1.1 9.9-1.8 14.2-4.2 2.5-1.4 4.1-5.1 5.4-8.1 14.8-35.8 29.3-71.7 35.6-110.1 1.7-10.3-2.1-21.5-3.4-32.3h-3.6zm118.8 87.6c-28.9 18.3-58.2 35.8-81.7 61.4-5.6 6.1-12.9 10.7-19 16.4-5.4 5.1-11 10.2-15.2 16.3-3.8 5.4-4 12.1 1.4 17.3 5.1 4.9 11.3 4.4 16.7 1.1 11.5-7 23.4-13.7 33.7-22.2 20.5-17.1 40.1-35.2 59.9-53 7.8-7 15.6-14.1 23.1-21.4 5.8-5.7 10.5-12.2 9.6-21.6-10.7-2.7-20 0.3-28.5 5.7z" fill="inherit"/></g>
</svg>