<svg xmlns="http://www.w3.org/2000/svg" enable-background="new 0 0 371.6 440.9" version="1.1" viewBox="0 0 371.6 440.9" x="0px" xml:space="preserve" y="0px" style="fill: rgb(255, 255, 255);" role="img" aria-label="Handdrawn Line with Dot Quote Decoration">
<g id="__id42_sns8ilx4t"><path d="m371.6 86.2c0 7.7-5.6 13.8-12.6 13.7-6.5 0.1-11.8-5-12-11.4v-0.3c0-6.6 6.6-13.7 13-13.8 6.8-0.2 11.5 4.7 11.6 11.8zm-311.6 291.2c1 29.1 23.5 56.5 50.7 60.6 12.6 1.9 25.4 2.3 38.2 2.7 14.1 0.4 25.2-3.3 37.6-11.5 2.6-1.7 4.9-3.6 7.1-5.7 11.3-11 22.1-22.3 32.9-33.8 4.3-4.5 7.6-9.9 11.5-14.9 3.5-4.5 4.3-9.4 0.4-13.9-4-4.7-9.4-4.6-14.4-1.8-2.4 1.5-4.6 3.5-6.4 5.7-9.7 11.3-19.1 22.9-28.9 34-11.9 13.6-26.5 21.4-45.2 18.9-8.8-1.2-17.7-1.8-26.5-3.2-20-3.3-35.7-25.3-32.2-45.3 0.3-1.8 2.9-4.4 4.7-4.6 19.3-2.1 35.8-10.9 51.7-21 13-8.3 21.4-20 23.7-35.5 2.3-14.8-4.6-23.3-19.7-23.5-20.5-0.3-39.5 4.9-53.5 20.7-8.5 9.6-15.3 20.8-23 31.2-1 1.4-2.5 3.9-3.6 3.8-11-1-22.7-1-30.1-11-8.6-11.5-13.7-24.7-11.6-39.2 4.1-28.8 15-54.2 39.3-72.1 7.8-5.7 15.5-11.5 22.9-17.7 3.8-3.1 6.9-3.5 11.6-1.6 20.9 8.5 42.5 14.3 65.4 12.5 16.8-1.3 32-7.3 44.2-19.2 9.2-9.1 11.5-20.4 7.6-32.7-3.8-11.9-12.8-17.5-24.9-18.8-17.5-1.8-34.7-1.1-51.3 5.3-14.3 5.4-28.5 11.1-43.1 16.9-1.5 0.6-3.3 0-4.2-1.3-17.9-27.3-10.9-76.9 14.6-97.2 22.5-17.9 48-30.6 76.4-36.1 34.8-6.8 67.9 2 100.2 14 9.7 3.6 18.9 8.6 28.6 12 3.1 1.1 8.9 0.2 10.7-2s1.5-8.1-0.2-10.9c-2.5-4.1-6.6-7.7-10.8-10.3-32.4-21.1-68.5-30.2-106.7-30.9-36.1-0.6-67.7 13.7-97.4 32.4-32.8 20.7-45.1 47.5-49.8 81.9-3.1 22.4 2.6 43 14.1 62.8 0.9 1.5 0.5 3.5-0.9 4.6-5.7 4.5-11.2 9.1-17 13.1-24.5 17-38.8 40.9-47.5 68.8-8.1 26.1-7.2 51.1 7.3 75.1 7.3 12.3 17.5 20.2 31.5 23.3 4.2 0.9 8.5 1.7 13 2.5 1.7 0.3 2.9 1.8 2.9 3.5 0 3.5-0.1 6.5 0.1 9.4zm124.1-213.8c0.2 0 0.5 0.1 0.7 0.1 5.7 1.1 8.1 7.9 4.8 12.7-0.5 0.8-1.2 1.5-2 2-14.7 9.6-31 10.5-47.8 7.1-6.5-1.3-12.9-3.2-19.3-4.8 20.4-10.7 40.7-19.3 63.6-17.1zm-48.9 143.4c2.7-0.3 5.2 1.7 5.5 4.4 0.1 1.2-0.2 2.3-0.8 3.3-8 11.8-28.5 23.6-45.3 24.2 8.4-18.5 23.2-29.9 40.6-31.9z" style="fill: inherit;"></path></g>
</svg>